<svg xmlns="http://www.w3.org/2000/svg" version="1.1" viewBox="-5.0 -10.0 110.0 135.0">
 <path d="m52.004 73.922c5.3281-2.1484 10.84-3.7812 16.461-4.8789 5.9297-1.1562 11.988-1.7188 18.078-1.6602v-54.629c-5.8164-0.054687-11.617 0.48047-17.312 1.5938-5.8906 1.1484-11.668 2.918-17.227 5.2852zm-4-54.289c-5.5586-2.3633-11.336-4.1328-17.227-5.2812-5.6953-1.1133-11.496-1.6484-17.312-1.5938v54.629c6.0898-0.058594 12.148 0.50391 18.078 1.6602l0.074219 0.015625c5.5977 1.0977 11.086 2.7266 16.391 4.8672v-54.293zm2.918 59.086c-0.27344 0.14453-0.58594 0.22266-0.91797 0.22266-0.33203 0-0.64453-0.082031-0.91797-0.22266-5.8789-2.5977-11.996-4.5195-18.246-5.7422l-0.066406-0.011718c-6.2734-1.2227-12.676-1.75-19.082-1.5586l-0.23047 0.011719c-1.1055 0-2-0.89453-2-2v-51.883c-0.44922 0.1875-0.87109 0.46875-1.2539 0.84375-0.41406 0.40234-0.71875 0.83594-0.91406 1.3047-0.19531 0.45703-0.29297 0.98438-0.29297 1.5664v49.527c0 1.0859 0.43359 2.0781 1.1367 2.7969 0.70312 0.72266 1.6836 1.1836 2.7617 1.207 5.7461 0.14062 11.461 0.75391 17.07 1.8242 5.5977 1.0664 11.094 2.582 16.422 4.5352 0.82422 0.24609 1.4258 1.0117 1.4258 1.9141 0 1.1602 0.46875 2.207 1.2188 2.9648 0.75781 0.75391 1.8047 1.2188 2.9648 1.2188 1.1562 0 2.2031-0.46875 2.957-1.2227 0.75781-0.75781 1.2266-1.8047 1.2266-2.9609 0.003906-0.8125 0.50391-1.5781 1.3125-1.875 5.3633-1.9727 10.898-3.5039 16.531-4.5742 5.6133-1.0703 11.328-1.6797 17.07-1.8242 1.0781-0.027344 2.0586-0.48438 2.7617-1.207 0.70312-0.71875 1.1367-1.707 1.1367-2.7969v-49.527c0-0.58203-0.097656-1.1094-0.29297-1.5703-0.19531-0.46484-0.50391-0.90234-0.91406-1.3008-0.38672-0.375-0.80859-0.66016-1.2461-0.84375l-0.007813 51.945c-0.035156 1.1016-0.95703 1.9648-2.0547 1.9297-6.4648-0.20703-12.922 0.31641-19.254 1.5508-6.2695 1.2227-12.41 3.1484-18.305 5.7539zm30.367-21.402c1.1016 0.035156 1.9648 0.95703 1.9297 2.0547-0.035156 1.1016-0.95703 1.9648-2.0547 1.9297-3.9492-0.125-7.8984 0.19531-11.77 0.94922-3.8828 0.75781-7.6641 1.9453-11.266 3.543-1.0039 0.44531-2.1797-0.011719-2.625-1.0156-0.44531-1.0039 0.011719-2.1797 1.0156-2.625 3.9102-1.7344 7.9766-3.0156 12.109-3.8242 4.1523-0.80859 8.3984-1.1523 12.66-1.0156zm0-25.328c1.1016 0.035157 1.9648 0.95703 1.9297 2.0547-0.035156 1.1016-0.95703 1.9648-2.0547 1.9297-3.9492-0.125-7.8984 0.19531-11.773 0.95312-3.8828 0.75781-7.6641 1.9453-11.266 3.5391-1.0039 0.44531-2.1797-0.011719-2.625-1.0156-0.44531-1.0039 0.011719-2.1797 1.0156-2.625 3.9102-1.7344 7.9766-3.0156 12.109-3.8203 4.1445-0.80859 8.3945-1.1523 12.664-1.0156zm0 12.664c1.1016 0.035156 1.9648 0.95703 1.9297 2.0547-0.035156 1.1016-0.95703 1.9648-2.0547 1.9297-3.9492-0.125-7.8984 0.19531-11.773 0.94922-3.8828 0.75781-7.6641 1.9453-11.266 3.5391-1.0039 0.44531-2.1797-0.011719-2.625-1.0156s0.011719-2.1797 1.0156-2.625c3.9102-1.7344 7.9766-3.0156 12.109-3.8203 4.1445-0.80859 8.3945-1.1523 12.664-1.0156zm0-25.328c1.1016 0.035156 1.9648 0.95703 1.9297 2.0547-0.035156 1.1016-0.95703 1.9648-2.0547 1.9297-3.9492-0.125-7.8984 0.19531-11.773 0.94922-3.8828 0.75781-7.6641 1.9453-11.266 3.5391-1.0039 0.44531-2.1797-0.011719-2.625-1.0156s0.011719-2.1797 1.0156-2.625c3.9102-1.7344 7.9766-3.0156 12.109-3.8203 4.1445-0.80859 8.3945-1.1523 12.664-1.0156zm9.2578-5.9297c0.46875 0.089844 0.92578 0.21875 1.3672 0.39062l0.10938 0.046875c0.9375 0.38281 1.793 0.94531 2.5547 1.6875 0.78906 0.76953 1.3945 1.6445 1.8047 2.6133 0.41406 0.97656 0.62109 2.0195 0.62109 3.1172v49.527c0 2.1641-0.86719 4.1367-2.2773 5.5781-1.4062 1.4414-3.3594 2.3594-5.5273 2.4102-5.5117 0.13672-11.012 0.72656-16.43 1.7578-4.9766 0.94922-9.8984 2.2773-14.707 3.9766-0.30078 1.6797-1.1133 3.1836-2.2695 4.3398-1.4805 1.4805-3.5273 2.3984-5.7852 2.3984-2.2539 0-4.2969-0.91797-5.7812-2.3984-1.1641-1.1641-1.9766-2.6641-2.2773-4.3398-4.8086-1.6992-9.7305-3.0273-14.711-3.9766-5.4219-1.0312-10.922-1.6211-16.43-1.7578-2.168-0.054687-4.1211-0.96875-5.5273-2.4102-1.4102-1.4414-2.2773-3.4141-2.2773-5.5781v-49.527c0-1.0977 0.20703-2.1406 0.62109-3.1133 0.41016-0.96875 1.0156-1.8477 1.8047-2.6172 0.79297-0.77344 1.6875-1.3555 2.6602-1.7344 0.44531-0.17188 0.90234-0.30469 1.375-0.39062v-2.5898c0.007812-1.0703 0.85938-1.9609 1.9375-1.9922 6.7852-0.21875 13.543 0.32812 20.141 1.6172 6.3242 1.2344 12.516 3.1484 18.465 5.7148 5.9453-2.5703 12.141-4.4844 18.465-5.7148 6.543-1.2773 13.242-1.8242 19.969-1.6211l0.10938-0.003906c1.1055 0 2 0.89453 2 2v2.5938zm-71.703 47.906c-1.1016 0.035157-2.0195-0.83203-2.0547-1.9297-0.035156-1.1016 0.83203-2.0195 1.9297-2.0547 4.2656-0.13672 8.5117 0.20703 12.656 1.0156 4.1367 0.80859 8.2031 2.0859 12.117 3.8242 1.0039 0.44531 1.4609 1.6211 1.0156 2.625-0.44531 1.0039-1.6211 1.4609-2.625 1.0156-3.6016-1.5977-7.3828-2.7852-11.266-3.543-3.8711-0.75391-7.8242-1.0781-11.77-0.94922zm0-25.328c-1.1016 0.035156-2.0195-0.83203-2.0547-1.9297-0.035156-1.1016 0.83203-2.0195 1.9297-2.0547 4.2695-0.13672 8.5195 0.20703 12.664 1.0156 4.1328 0.80469 8.1953 2.0859 12.109 3.8203 1.0039 0.44531 1.4609 1.6211 1.0156 2.625-0.44531 1.0039-1.6211 1.4609-2.625 1.0156-3.5977-1.5977-7.3789-2.7852-11.266-3.5391-3.875-0.75781-7.8242-1.0781-11.773-0.95312zm0 12.664c-1.1016 0.035156-2.0195-0.83203-2.0547-1.9297-0.035156-1.1016 0.83203-2.0195 1.9297-2.0547 4.2695-0.13672 8.5195 0.20703 12.664 1.0156 4.1328 0.80469 8.1953 2.0859 12.109 3.8203 1.0039 0.44531 1.4609 1.6211 1.0156 2.625-0.44531 1.0039-1.6211 1.4609-2.625 1.0156-3.5977-1.5977-7.3789-2.7852-11.266-3.5391-3.875-0.75781-7.8242-1.0781-11.773-0.94922zm0-25.328c-1.1016 0.035156-2.0195-0.83203-2.0547-1.9297-0.035156-1.1016 0.83203-2.0195 1.9297-2.0547 4.2695-0.13672 8.5195 0.20703 12.664 1.0156 4.1328 0.80469 8.1953 2.0859 12.109 3.8203 1.0039 0.44531 1.4609 1.6211 1.0156 2.625-0.44531 1.0039-1.6211 1.4609-2.625 1.0156-3.5977-1.5977-7.3789-2.7852-11.266-3.5391-3.875-0.75781-7.8242-1.0781-11.773-0.94922z"/>
<text x="0.0" y="117.5" font-size="5.0" font-weight="bold" font-family="Arbeit Regular, Helvetica, Arial-Unicode, Arial, Sans-serif" fill="#000000">Created by Tsundere Project</text><text x="0.0" y="122.5" font-size="5.0" font-weight="bold" font-family="Arbeit Regular, Helvetica, Arial-Unicode, Arial, Sans-serif" fill="#000000">from Noun Project</text></svg>