<svg xmlns="http://www.w3.org/2000/svg" xmlns:xlink="http://www.w3.org/1999/xlink" width="1024" zoomAndPan="magnify" viewBox="0 0 768 767.999994" height="1024" preserveAspectRatio="xMidYMid meet" version="1.0"><defs><clipPath id="14306e2e02"><path d="M 75 0 L 693 0 C 712.890625 0 731.96875 7.902344 746.03125 21.96875 C 760.097656 36.03125 768 55.109375 768 75 L 768 693 C 768 712.890625 760.097656 731.96875 746.03125 746.03125 C 731.96875 760.097656 712.890625 768 693 768 L 75 768 C 55.109375 768 36.03125 760.097656 21.96875 746.03125 C 7.902344 731.96875 0 712.890625 0 693 L 0 75 C 0 55.109375 7.902344 36.03125 21.96875 21.96875 C 36.03125 7.902344 55.109375 0 75 0 Z M 75 0 " clip-rule="nonzero"/></clipPath><clipPath id="bd53c25410"><path d="M 179 171 L 672 171 L 672 677.515625 L 179 677.515625 Z M 179 171 " clip-rule="nonzero"/></clipPath><clipPath id="a7f1c2381e"><path d="M 120 30.265625 L 732 30.265625 L 732 382 L 120 382 Z M 120 30.265625 " clip-rule="nonzero"/></clipPath><clipPath id="f6ddace99b"><path d="M 0 32.515625 L 485.496094 32.515625 L 485.496094 739.765625 L 0 739.765625 Z M 0 32.515625 " clip-rule="nonzero"/></clipPath></defs><g clip-path="url(#14306e2e02)"><rect x="-76.8" width="921.6" fill="#314776" y="-76.799999" height="921.599993" fill-opacity="1"/></g><g clip-path="url(#bd53c25410)"><path fill="#eeae6d" d="M 179.882812 415.886719 L 179.882812 665.769531 C 179.882812 672.042969 184.976562 677.148438 191.261719 677.148438 L 459.449219 677.148438 L 459.449219 450.882812 L 585.429688 450.882812 L 585.429688 677.148438 L 660.371094 677.148438 C 666.671875 677.148438 671.75 672.042969 671.75 665.769531 L 671.75 415.886719 L 425.960938 171.148438 Z M 379.882812 556.300781 L 266.203125 556.300781 L 266.203125 450.894531 L 379.882812 450.894531 Z M 379.882812 556.300781 " fill-opacity="1" fill-rule="nonzero"/></g><g clip-path="url(#a7f1c2381e)"><path fill="#eeae6d" d="M 721.570312 326.03125 L 425.832031 30.304688 L 286.3125 169.808594 L 286.3125 108.417969 C 286.3125 94.074219 274.675781 82.4375 260.332031 82.4375 C 245.992188 82.4375 234.351562 94.074219 234.351562 108.417969 L 234.351562 221.773438 L 130.078125 326.03125 C 117.386719 338.722656 117.386719 359.289062 130.078125 371.964844 C 136.417969 378.304688 144.730469 381.476562 153.046875 381.476562 C 161.359375 381.476562 169.660156 378.304688 176.011719 371.980469 L 425.84375 122.175781 L 675.648438 371.964844 C 688.339844 384.65625 708.890625 384.65625 721.570312 371.964844 C 734.25 359.273438 734.25 338.710938 721.570312 326.03125 Z M 721.570312 326.03125 " fill-opacity="1" fill-rule="nonzero"/></g><g clip-path="url(#f6ddace99b)"><path fill="#fb84ae" d="M 485.171875 594.433594 L 269.183594 594.433594 L 269.183594 739.976562 L 178.007812 739.976562 L 178.007812 594.433594 L -37.71875 594.433594 L 93.003906 410.933594 L 23.960938 410.933594 L 153.914062 228.511719 L 84.105469 228.511719 L 223.726562 32.515625 L 363.351562 228.511719 L 293.539062 228.511719 L 423.492188 410.933594 L 354.449219 410.933594 Z M 485.171875 594.433594 " fill-opacity="1" fill-rule="nonzero"/></g></svg>